<svg width="64" height="65" viewBox="0 0 64 65" fill="none" xmlns="http://www.w3.org/2000/svg">
<g clip-path="url(#clip0_211_39)">
<path d="M32.0864 3.99221C26.5298 3.99221 21.0981 5.6399 16.4781 8.72694C11.858 11.814 8.25707 16.2017 6.13067 21.3352C4.00428 26.4689 3.44793 32.1177 4.53195 37.5674C5.61598 43.0172 8.2917 48.0231 12.2208 51.9521C16.1498 55.8812 21.1557 58.557 26.6054 59.641C32.0553 60.725 37.7041 60.1685 42.8376 58.0422C47.9712 55.9158 52.3589 52.3149 55.4459 47.6948C58.533 43.0747 60.1807 37.643 60.1807 32.0865C60.1807 28.397 59.454 24.7438 58.0421 21.3352C56.6303 17.9266 54.5608 14.8296 51.952 12.2208C49.3432 9.61203 46.2462 7.54262 42.8376 6.13076C39.4291 4.71888 35.7758 3.99221 32.0864 3.99221ZM50.0082 46.3568C53.1407 31.2044 46.9811 20.5371 39.7266 21.2757C32.2888 22.0247 33.0101 29.8396 34.0393 33.0587C31.5935 31.2563 24.5967 27.2208 21.0767 32.0208C14.6853 40.7525 30.9068 52.8831 40.4358 54.6007C29.5316 53.1408 16.268 45.8379 10.7242 35.0703C5.36207 24.6331 14.4656 16.7784 22.6594 16.0536C20.8484 19.4094 19.5251 21.2619 17.7228 23.0937C23.1368 20.4749 25.4996 14.0783 28.0735 11.7622C30.6473 9.44605 36.5284 5.40886 44.428 12.8778C52.7705 20.7672 53.3984 39.2338 50.0082 46.3568ZM32.0864 64.173C24.6842 64.168 17.5114 61.6046 11.7826 56.917C6.05391 52.2293 2.12163 45.7056 0.651823 38.4507C-0.81798 31.1959 0.265056 23.6562 3.71748 17.1084C7.16991 10.5607 12.7795 5.40758 19.596 2.52194C27.4279 -0.740499 36.2329 -0.769197 44.0857 2.44211C51.9387 5.65342 58.2007 11.8435 61.5026 19.6588C64.8043 27.4741 64.8773 36.2789 61.7056 44.148C58.5338 52.0168 52.3755 58.3099 44.5768 61.6511C40.6252 63.3229 36.377 64.1806 32.0864 64.173ZM32.0864 1.03783C14.9621 1.03783 1.03775 14.9622 1.03775 32.0865C1.03775 49.2109 14.9621 63.1352 32.0864 63.1352C49.2107 63.1352 63.1351 49.2109 63.1351 32.0865C63.1351 14.9622 49.2107 1.03783 32.0864 1.03783Z" fill="#23BFCF"/>
<path d="M39.7269 21.2756C32.2891 22.0246 33.0104 29.8395 34.0396 33.0585C31.5937 31.2561 24.597 27.2207 21.077 32.0207C17.8147 36.4747 20.4422 41.8144 25.064 46.2045C34.3336 41.2038 41.6504 34.4423 47.1734 25.1294C45.1704 22.4086 42.5308 20.9867 39.7269 21.2756Z" fill="#68CBD8"/>
<path d="M1.03797 32.0866C1.03797 14.9622 14.9623 1.03789 32.0866 1.03789C40.2473 1.03076 48.0806 4.24735 53.8812 9.98751C54.0006 9.61908 54.1165 9.24546 54.2272 8.87011C48.2632 3.19319 40.3452 0.0261956 32.1116 0.0244148C23.8777 0.0226342 15.9584 3.1862 9.99207 8.86054C4.02574 14.5349 0.46912 22.2858 0.0581027 30.5092C-0.352915 38.7327 2.41313 46.7995 7.78391 53.0405L8.89267 52.7171C3.82606 47.0404 1.02959 39.6955 1.03797 32.0866Z" fill="#68CBD8"/>
<path d="M32.0864 3.9922C26.5556 3.99322 21.148 5.62683 16.5418 8.68828C11.9355 11.7497 8.33538 16.1027 6.19273 21.2017C4.05008 26.3006 3.46024 31.9186 4.49714 37.3515C5.53403 42.7842 8.15153 47.79 12.0215 51.7414C15.5691 50.5815 19.0361 49.1884 22.3999 47.5711C17.5204 44.3053 13.2963 40.0623 10.7242 35.0703C5.36206 24.6331 14.4656 16.7784 22.6594 16.0536C20.8484 19.4093 19.5251 21.2619 17.7228 23.0937C23.1368 20.4748 25.4996 14.0783 28.0735 11.7621C30.6473 9.44604 36.5284 5.40885 44.4281 12.8778C46.6214 14.9535 48.2802 17.7592 49.4754 20.8969C50.7277 18.3661 51.8375 15.7676 52.7999 13.1131C50.1713 10.236 46.9714 7.93884 43.4049 6.36835C39.8384 4.79786 35.9833 3.98858 32.0864 3.9922Z" fill="#68CBD8"/>
</g>
<defs>
<clipPath id="clip0_211_39">
<rect width="64" height="64.173" fill="white"/>
</clipPath>
</defs>
</svg>
