<svg width="120" height="52" viewBox="0 0 120 52" fill="none" xmlns="http://www.w3.org/2000/svg">
<g clip-path="url(#clip0_211_11)">
<mask id="mask0_211_11" style="mask-type:luminance" maskUnits="userSpaceOnUse" x="0" y="0" width="120" height="52">
<path d="M120 0H0V51.4286H120V0Z" fill="white"/>
</mask>
<g mask="url(#mask0_211_11)">
<path d="M40.5631 11.196V32.7671C40.5631 36.8321 38.489 40.6089 35.0785 42.754L22.2261 50.8354C21.0508 51.5742 19.5631 51.5742 18.3878 50.8354L5.53543 42.754C2.12494 40.6096 0.0507812 36.8329 0.0507812 32.7671V11.196C0.0507812 9.73883 0.898723 8.41898 2.21408 7.82884L18.8328 0.365625C19.7721 -0.0561197 20.8433 -0.0561197 21.7819 0.365625L38.4006 7.82884C39.7159 8.41974 40.5639 9.73959 40.5639 11.196H40.5631Z" fill="#662482"/>
<path d="M16.5959 3.64551L3.04607 9.73046C2.47453 9.98684 2.10449 10.5626 2.10449 11.1959V32.7671C2.10449 36.1365 3.79213 39.2086 6.6191 40.9858L16.5966 47.2597V3.64551H16.5959Z" fill="#F29100"/>
<path d="M35.3271 17.8368C34.5766 15.6629 32.3541 12.6029 29.017 11.9832C25.805 11.387 23.1106 13.3372 21.602 14.7981C20.8627 15.5142 19.7518 15.5142 19.0125 14.7981C17.5032 13.3372 14.8073 11.387 11.5953 11.9825C8.25896 12.6022 6.03648 15.6621 5.28517 17.8361C3.40502 23.2725 7.87094 31.4419 16.5953 38.8497V31.0543C16.5953 29.1238 18.1406 27.559 20.047 27.559H20.5646C22.4709 27.559 24.0163 29.1238 24.0163 31.0543V38.8512C32.7406 31.4434 37.2065 23.2725 35.3264 17.8361L35.3271 17.8368Z" fill="white"/>
<path d="M56.5041 13.822H58.2614V23.6101H56.5041V19.2736H52.3056V23.6101H50.5483V13.822H52.3056V17.7345H56.5041V13.822Z" fill="#1D1D1B"/>
<path d="M66.8824 16.2236V23.611H65.2083C65.2083 23.0739 65.2105 22.5422 65.215 22.015C65.2195 21.4879 65.224 20.9978 65.2292 20.5458C65.2337 20.0937 65.2382 19.7008 65.2435 19.367C65.248 19.0332 65.2502 18.786 65.2502 18.6251C64.9716 18.9923 64.6832 19.3973 64.385 19.8396C64.0877 20.2825 63.7925 20.7248 63.4996 21.167C63.2068 21.61 62.9296 22.0431 62.6697 22.4671C62.409 22.8911 62.1813 23.2719 61.9858 23.611H60.4937V16.2236H62.1536C62.1536 16.7698 62.1513 17.2901 62.1468 17.7847C62.1416 18.2793 62.1401 18.7291 62.1401 19.1334C62.1401 19.5377 62.1378 19.8911 62.1333 20.193C62.1289 20.4942 62.1266 20.7248 62.1266 20.8848C62.3865 20.4805 62.6562 20.0633 62.9356 19.6348C63.2142 19.2062 63.4959 18.7875 63.7798 18.3779C64.0629 17.9683 64.3446 17.5799 64.6232 17.2128C64.9026 16.8456 65.1716 16.5157 65.4322 16.2236H66.8832H66.8824Z" fill="#1D1D1B"/>
<path d="M70.7174 19.1893C70.9309 18.9731 71.1639 18.7304 71.4148 18.4618C71.6657 18.1933 71.9144 17.9225 72.1609 17.6495C72.4073 17.3764 72.6418 17.1155 72.865 16.8659C73.0882 16.6163 73.274 16.4024 73.423 16.2234H75.4036C75.1991 16.4684 74.9639 16.7369 74.6994 17.0282C74.4343 17.3203 74.1601 17.6191 73.8762 17.9248C73.5923 18.2313 73.3137 18.5278 73.0395 18.8146C72.7654 19.102 72.5167 19.3584 72.2935 19.5845C72.5818 19.8295 72.8815 20.1147 73.1931 20.4393C73.5047 20.764 73.8111 21.1084 74.1137 21.4702C74.4156 21.8328 74.6972 22.1999 74.9579 22.5716C75.2178 22.944 75.4365 23.2899 75.6133 23.61H73.6605C73.4837 23.3278 73.277 23.0305 73.0395 22.7203C72.8028 22.4093 72.5534 22.1058 72.2935 21.8093C72.0328 21.5127 71.7684 21.232 71.4987 20.9688C71.229 20.7056 70.9691 20.4795 70.7174 20.2907V23.61H69.0298V16.2227H70.7174V19.1885V19.1893Z" fill="#1D1D1B"/>
<path d="M79.2678 16.04C79.8258 16.04 80.2947 16.1106 80.6768 16.2517C81.058 16.3928 81.3622 16.5907 81.5906 16.8448C81.8183 17.099 81.9809 17.4077 82.079 17.7703C82.1764 18.1328 82.2258 18.5311 82.2258 18.9634V23.441C81.9652 23.4972 81.5726 23.5662 81.0468 23.6459C80.5217 23.7255 79.9285 23.7657 79.2685 23.7657C78.8311 23.7657 78.4318 23.7232 78.0693 23.639C77.7067 23.5541 77.3974 23.4175 77.1412 23.2294C76.885 23.0413 76.6858 22.7963 76.5412 22.4952C76.3974 22.194 76.3247 21.8223 76.3247 21.3794C76.3247 20.9364 76.4056 20.5973 76.5689 20.306C76.7314 20.0148 76.9524 19.7766 77.2311 19.593C77.5105 19.4094 77.8333 19.2775 78.2004 19.1971C78.5682 19.1174 78.9517 19.0772 79.3509 19.0772C79.5367 19.0772 79.7322 19.0893 79.9367 19.1129C80.1412 19.1364 80.3599 19.1766 80.5921 19.2327V18.9505C80.5921 18.7526 80.5689 18.5644 80.5225 18.3854C80.476 18.2064 80.3944 18.0486 80.2783 17.9121C80.1614 17.7756 80.0086 17.6701 79.8176 17.5943C79.6266 17.5192 79.3869 17.4813 79.0992 17.4813C78.709 17.4813 78.3509 17.5093 78.0251 17.5662C77.7 17.6231 77.4348 17.6883 77.2303 17.7642L77.0213 16.3799C77.2348 16.3048 77.5464 16.2289 77.9562 16.1538C78.3652 16.0787 78.8026 16.0408 79.267 16.0408L79.2678 16.04ZM79.4071 22.4102C79.9277 22.4102 80.3232 22.3821 80.5929 22.3252V20.4327C80.5 20.4046 80.3652 20.3758 80.1884 20.3478C80.0116 20.3197 79.8161 20.3053 79.6026 20.3053C79.4168 20.3053 79.2281 20.3197 79.0378 20.3478C78.8468 20.3758 78.6753 20.4274 78.5217 20.5032C78.3682 20.5783 78.2453 20.6845 78.1524 20.8211C78.0595 20.9576 78.0131 21.129 78.0131 21.3369C78.0131 21.7419 78.1382 22.0218 78.3899 22.1773C78.6416 22.3328 78.9801 22.4102 79.4079 22.4102H79.4071Z" fill="#1D1D1B"/>
<path d="M86.647 22.0991H87.847C88.2657 21.5158 88.5885 20.9014 88.8163 20.2559C89.044 19.6111 89.2118 18.9421 89.3181 18.2503C89.402 17.705 89.456 17.0951 89.4889 16.505C89.5736 15.0015 90.7923 13.822 92.2799 13.822H95.4627V22.0991H96.8994V23.6109H86.647V22.0991ZM92.5084 15.3474C91.7893 15.3474 91.1945 15.9118 91.1518 16.6392C91.1429 16.7871 91.1339 16.935 91.1249 17.0845C91.0874 17.6776 91.02 18.264 90.9226 18.8428C90.8252 19.4223 90.6874 19.9866 90.5106 20.5373C90.3339 21.088 90.0919 21.6091 89.7856 22.0984H93.7331V15.3467H92.5084V15.3474Z" fill="#1D1D1B"/>
<path d="M97.8057 19.9526C97.8057 19.3033 97.9008 18.7336 98.0918 18.2436C98.2821 17.7536 98.536 17.3462 98.8521 17.0216C99.1682 16.6969 99.5308 16.4519 99.9405 16.2873C100.349 16.1227 100.768 16.04 101.196 16.04C102.2 16.04 102.983 16.3556 103.546 16.9867C104.109 17.6178 104.391 18.5591 104.391 19.8115C104.391 19.9055 104.388 20.0117 104.384 20.1293C104.379 20.2469 104.372 20.3531 104.363 20.4471H99.5502C99.5967 21.0403 99.8034 21.4992 100.171 21.8239C100.538 22.1485 101.071 22.3116 101.768 22.3116C102.177 22.3116 102.552 22.2744 102.891 22.1986C103.23 22.1227 103.498 22.0431 103.693 21.9589L103.917 23.3569C103.824 23.4046 103.696 23.4539 103.533 23.5055C103.37 23.5571 103.185 23.6049 102.975 23.6466C102.766 23.6891 102.54 23.724 102.299 23.7528C102.057 23.7809 101.81 23.7953 101.559 23.7953C100.917 23.7953 100.359 23.6982 99.8851 23.5055C99.4109 23.3129 99.0199 23.0443 98.7135 22.7007C98.4064 22.3571 98.1787 21.952 98.0296 21.4856C97.8806 21.0191 97.8064 20.5086 97.8064 19.9533L97.8057 19.9526ZM102.702 19.1895C102.702 18.9543 102.669 18.7306 102.604 18.5189C102.539 18.3073 102.444 18.123 102.318 17.9682C102.193 17.8127 102.039 17.6906 101.857 17.6011C101.676 17.5116 101.46 17.4668 101.209 17.4668C100.958 17.4668 100.72 17.5161 100.525 17.6148C100.329 17.7134 100.164 17.8431 100.03 18.0031C99.8948 18.1632 99.7899 18.3467 99.7158 18.5538C99.6409 18.7609 99.5907 18.9733 99.5622 19.1895H102.701H102.702Z" fill="#1D1D1B"/>
<path d="M112.298 23.611H110.611V20.5177H107.863V23.611H106.175V16.2236H107.863V19.1053H110.611V16.2236H112.298V23.611Z" fill="#1D1D1B"/>
<path d="M119.942 17.6504H117.585V23.611H115.897V17.6504H113.554V16.2236H119.943V17.6504H119.942Z" fill="#1D1D1B"/>
<path d="M52.5961 35.5684C52.2964 35.4524 52.0313 35.2703 51.8013 35.0231C51.5713 34.7758 51.3886 34.4625 51.2545 34.0817C51.1204 33.7017 51.0522 33.2473 51.0522 32.7186V32.548C51.0522 32.0367 51.1197 31.5968 51.2545 31.2274C51.3886 30.8587 51.5713 30.5545 51.8013 30.3156C52.0313 30.0774 52.2964 29.8999 52.5961 29.7831C52.8957 29.6671 53.2088 29.6086 53.5339 29.6086C53.859 29.6086 54.1466 29.6511 54.4125 29.7368C54.6792 29.8218 54.9137 29.9439 55.1152 30.1032C55.3174 30.2625 55.4807 30.4582 55.6066 30.6911C55.7331 30.9239 55.8125 31.1879 55.8463 31.483H55.0051C54.9661 31.2903 54.9047 31.1212 54.82 30.9763C54.7354 30.8314 54.632 30.7108 54.5092 30.6145C54.3856 30.5181 54.2425 30.4453 54.08 30.3975C53.9167 30.3497 53.7354 30.3255 53.5331 30.3255C53.3309 30.3255 53.1234 30.3649 52.9272 30.4445C52.7309 30.5242 52.5556 30.6501 52.4021 30.8231C52.2478 30.9968 52.1249 31.2251 52.032 31.5088C51.9391 31.7925 51.8934 32.1391 51.8934 32.548V32.7186C51.8934 33.1502 51.9436 33.5121 52.0448 33.8049C52.1459 34.0976 52.2747 34.3343 52.432 34.5164C52.5886 34.6984 52.7654 34.8289 52.9616 34.9085C53.1579 34.9882 53.3489 35.0276 53.5339 35.0276C53.7526 35.0276 53.9474 34.9995 54.1189 34.9427C54.2897 34.8858 54.4365 34.8061 54.5601 34.7037C54.6837 34.6013 54.7826 34.4792 54.859 34.3373C54.9346 34.1955 54.9833 34.0392 55.0058 33.8686H55.847C55.8021 34.1978 55.7129 34.4807 55.5773 34.7158C55.4433 34.9518 55.2732 35.1459 55.0687 35.2992C54.8642 35.4524 54.6313 35.5646 54.3706 35.6352C54.1099 35.7065 53.8305 35.7414 53.5331 35.7414C53.2081 35.7414 52.8949 35.683 52.5953 35.5669L52.5961 35.5684Z" fill="#1D1D1B"/>
<path d="M58.3113 30.3937H56.2671V29.6951H61.1457V30.3937H59.1015V35.6579H58.3105V30.3937H58.3113Z" fill="#1D1D1B"/>
<path d="M63.2828 35.5684C62.969 35.4524 62.6911 35.2718 62.4499 35.0276C62.2087 34.7833 62.0154 34.4708 61.8701 34.0908C61.724 33.71 61.6514 33.2534 61.6514 32.7194V32.5487C61.6514 32.0374 61.7248 31.5975 61.8701 31.2281C62.0154 30.8594 62.2094 30.5537 62.4499 30.3125C62.6911 30.0713 62.969 29.8938 63.2828 29.78C63.5967 29.6663 63.9225 29.6094 64.2589 29.6094C64.5952 29.6094 64.9203 29.6663 65.2341 29.78C65.548 29.8938 65.8259 30.0713 66.0671 30.3125C66.3083 30.5537 66.5016 30.8594 66.6476 31.2281C66.7937 31.5975 66.8663 32.0374 66.8663 32.5487V32.7194C66.8663 33.2534 66.7937 33.71 66.6476 34.0908C66.5016 34.4708 66.3083 34.7833 66.0671 35.0276C65.8259 35.2718 65.548 35.4524 65.2341 35.5684C64.9203 35.6845 64.5952 35.7429 64.2589 35.7429C63.9225 35.7429 63.5967 35.6845 63.2828 35.5684ZM64.9233 34.8994C65.1368 34.8137 65.324 34.6794 65.4873 34.4951C65.6499 34.3108 65.7802 34.0718 65.8783 33.7798C65.9765 33.4878 66.0259 33.1343 66.0259 32.7194V32.5487C66.0259 32.1565 65.9765 31.8205 65.8783 31.5391C65.7802 31.2577 65.6499 31.0278 65.4873 30.8488C65.324 30.6698 65.1368 30.5378 64.9233 30.4529C64.7105 30.3679 64.4888 30.3254 64.2589 30.3254C64.0289 30.3254 63.8072 30.3679 63.5944 30.4529C63.381 30.5378 63.1937 30.6698 63.0311 30.8488C62.8678 31.0278 62.7383 31.2577 62.6401 31.5391C62.542 31.8197 62.4926 32.1565 62.4926 32.5487V32.7194C62.4926 33.1335 62.5413 33.4878 62.6401 33.7798C62.7383 34.0726 62.8678 34.3108 63.0311 34.4951C63.1937 34.6794 63.381 34.8144 63.5944 34.8994C63.8072 34.9843 64.0289 35.0268 64.2589 35.0268C64.4888 35.0268 64.7105 34.9843 64.9233 34.8994Z" fill="#1D1D1B"/>
<path d="M68.2119 29.6951H69.0366L71.0044 33.4855L72.973 29.6951H73.764V35.6571H72.973V31.1423L71.2823 34.379H70.6936L69.0029 31.1423V35.6571H68.2119V29.6951Z" fill="#1D1D1B"/>
<path d="M78.6506 34.1757H76.1607L75.5974 35.6579H74.7734L77.0281 29.6958H77.8184L80.0731 35.6579H79.2154L78.6521 34.1757H78.6506ZM76.4214 33.4771H78.3899L77.4056 30.7175L76.4214 33.4771Z" fill="#1D1D1B"/>
<path d="M81.7795 30.3937H79.7354V29.6951H84.614V30.3937H82.5698V35.6579H81.7788V30.3937H81.7795Z" fill="#1D1D1B"/>
<path d="M86.7511 35.5684C86.4372 35.4524 86.1593 35.2718 85.9181 35.0276C85.6769 34.7833 85.4837 34.4708 85.3384 34.0908C85.1923 33.71 85.1196 33.2534 85.1196 32.7194V32.5487C85.1196 32.0374 85.193 31.5975 85.3384 31.2281C85.4837 30.8594 85.6777 30.5537 85.9181 30.3125C86.1593 30.0713 86.4372 29.8938 86.7511 29.78C87.0649 29.6663 87.3908 29.6094 87.7271 29.6094C88.0635 29.6094 88.3885 29.6663 88.7024 29.78C89.0163 29.8938 89.2942 30.0713 89.5354 30.3125C89.7766 30.5537 89.9698 30.8594 90.1159 31.2281C90.262 31.5975 90.3346 32.0374 90.3346 32.5487V32.7194C90.3346 33.2534 90.262 33.71 90.1159 34.0908C89.9698 34.4708 89.7766 34.7833 89.5354 35.0276C89.2942 35.2718 89.0163 35.4524 88.7024 35.5684C88.3885 35.6845 88.0635 35.7429 87.7271 35.7429C87.3908 35.7429 87.0649 35.6845 86.7511 35.5684ZM88.3908 34.8994C88.6043 34.8137 88.7915 34.6794 88.9548 34.4951C89.1174 34.3108 89.2477 34.0718 89.3458 33.7798C89.444 33.4878 89.4934 33.1343 89.4934 32.7194V32.5487C89.4934 32.1565 89.444 31.8205 89.3458 31.5391C89.2477 31.2577 89.1174 31.0278 88.9548 30.8488C88.7915 30.6698 88.6043 30.5378 88.3908 30.4529C88.1781 30.3679 87.9563 30.3254 87.7264 30.3254C87.4964 30.3254 87.2747 30.3679 87.062 30.4529C86.8485 30.5378 86.6612 30.6698 86.4987 30.8488C86.3354 31.0278 86.2058 31.2577 86.1076 31.5391C86.0095 31.8197 85.9601 32.1565 85.9601 32.5487V32.7194C85.9601 33.1335 86.0088 33.4878 86.1076 33.7798C86.2058 34.0726 86.3354 34.3108 86.4987 34.4951C86.6612 34.6794 86.8485 34.8144 87.062 34.8994C87.2747 34.9843 87.4964 35.0268 87.7264 35.0268C87.9563 35.0268 88.1781 34.9843 88.3908 34.8994Z" fill="#1D1D1B"/>
<path d="M91.2386 35.7429C91.2183 35.7429 91.1974 35.7413 91.1756 35.7383C91.1539 35.7353 91.1322 35.733 91.1127 35.73C91.0932 35.7269 91.0723 35.7224 91.0498 35.7171V34.9335C91.0663 34.9396 91.109 34.9418 91.1756 34.9418C91.288 34.9418 91.3876 34.9236 91.4745 34.8865C91.5614 34.8493 91.6371 34.7818 91.7015 34.6824C91.7659 34.5831 91.8213 34.4427 91.87 34.2607C91.9172 34.0794 91.9554 33.845 91.9839 33.5583C92.0123 33.2716 92.0311 32.9234 92.0431 32.5145C92.0543 32.1057 92.0595 31.6202 92.0595 31.0582V29.6951H96.0131V35.6571H95.2228V30.3929H92.8506V31.2273C92.8506 31.8576 92.8371 32.4068 92.8086 32.8756C92.7809 33.3436 92.7382 33.7456 92.682 34.0809C92.6258 34.4162 92.5562 34.6915 92.4723 34.907C92.3884 35.1224 92.2888 35.2915 92.1734 35.4137C92.058 35.5358 91.9285 35.6207 91.7824 35.6693C91.6363 35.7178 91.4768 35.7413 91.303 35.7413H91.2401L91.2386 35.7429Z" fill="#1D1D1B"/>
<path d="M98.9894 35.5684C98.6755 35.4524 98.3976 35.2718 98.1564 35.0276C97.9152 34.7833 97.722 34.4708 97.5766 34.0908C97.4306 33.71 97.3579 33.2534 97.3579 32.7194V32.5487C97.3579 32.0374 97.4313 31.5975 97.5766 31.2281C97.722 30.8594 97.916 30.5537 98.1564 30.3125C98.3976 30.0713 98.6755 29.8938 98.9894 29.78C99.3032 29.6663 99.6291 29.6094 99.9654 29.6094C100.302 29.6094 100.627 29.6663 100.941 29.78C101.255 29.8938 101.532 30.0713 101.774 30.3125C102.015 30.5537 102.208 30.8594 102.354 31.2281C102.5 31.5975 102.573 32.0374 102.573 32.5487V32.7194C102.573 33.2534 102.5 33.71 102.354 34.0908C102.208 34.4708 102.015 34.7833 101.774 35.0276C101.532 35.2718 101.255 35.4524 100.941 35.5684C100.627 35.6845 100.302 35.7429 99.9654 35.7429C99.6291 35.7429 99.3032 35.6845 98.9894 35.5684ZM100.63 34.8994C100.843 34.8137 101.031 34.6794 101.194 34.4951C101.356 34.3108 101.487 34.0718 101.585 33.7798C101.683 33.4878 101.732 33.1343 101.732 32.7194V32.5487C101.732 32.1565 101.683 31.8205 101.585 31.5391C101.487 31.2577 101.356 31.0278 101.194 30.8488C101.031 30.6698 100.843 30.5378 100.63 30.4529C100.417 30.3679 100.195 30.3254 99.9654 30.3254C99.7354 30.3254 99.5137 30.3679 99.301 30.4529C99.0875 30.5378 98.9002 30.6698 98.7377 30.8488C98.5744 31.0278 98.4448 31.2577 98.3467 31.5391C98.2486 31.8197 98.1991 32.1565 98.1991 32.5487V32.7194C98.1991 33.1335 98.2478 33.4878 98.3467 33.7798C98.4448 34.0726 98.5744 34.3108 98.7377 34.4951C98.9002 34.6794 99.0875 34.8144 99.301 34.8994C99.5137 34.9843 99.7354 35.0268 99.9654 35.0268C100.195 35.0268 100.417 34.9843 100.63 34.8994Z" fill="#1D1D1B"/>
<path d="M103.918 29.6951H107.619V30.3937H104.709V35.6579H103.918V29.6958V29.6951Z" fill="#1D1D1B"/>
<path d="M108.629 29.6951H109.42V34.3798L112.549 29.6951H113.339V35.6571H112.549V30.9724L109.42 35.6571H108.629V29.6951Z" fill="#1D1D1B"/>
<path d="M116.174 33.1532C115.72 33.0281 115.379 32.8164 115.152 32.5183C114.925 32.2202 114.811 31.8751 114.811 31.4829C114.811 31.2273 114.858 30.9906 114.954 30.7722C115.049 30.5537 115.19 30.3649 115.375 30.2056C115.56 30.0463 115.791 29.9219 116.069 29.8308C116.346 29.7398 116.67 29.6951 117.04 29.6951H119.101V35.6571H118.311V33.2549H116.948L115.451 35.6571H114.56L116.175 33.1532H116.174ZM115.686 31.9267C115.742 32.0625 115.832 32.1777 115.956 32.2718C116.079 32.3651 116.237 32.4394 116.431 32.4933C116.624 32.5472 116.855 32.5745 117.125 32.5745H118.311V30.3937H117.125C116.855 30.3937 116.624 30.421 116.431 30.4748C116.237 30.5287 116.079 30.603 115.956 30.6963C115.832 30.7904 115.742 30.9034 115.686 31.0369C115.63 31.1704 115.602 31.3198 115.602 31.4844C115.602 31.6491 115.63 31.7909 115.686 31.9274V31.9267Z" fill="#1D1D1B"/>
</g>
</g>
<defs>
<clipPath id="clip0_211_11">
<rect width="120" height="51.4286" fill="white"/>
</clipPath>
</defs>
</svg>
